<svg width="260" height="119" viewBox="0 0 260 119" fill="none" xmlns="http://www.w3.org/2000/svg">
<path d="M22.1395 91.228L3.39175 50.2123L0.198909 48.8205V48.4112H17.2274V48.8205L12.2335 50.2123L25.9054 80.6671L29.7532 71.3341C37.285 52.9958 34.9927 50.1304 29.262 48.9842L28.4433 48.8205V48.4112H43.0158V48.8205L39.8229 50.2123L22.3032 91.228H22.1395ZM42.403 90V89.5907L47.2332 87.9533V53.0776L42.403 52.0952V51.6859L55.0925 47.1832H55.1744V54.3057C58.4491 51.0309 62.9518 47.1832 67.1271 47.1832C69.7469 47.1832 71.4661 48.7386 71.4661 51.4403C71.4661 53.2414 70.7293 54.4694 69.9106 55.2062C67.782 54.06 64.8348 52.832 61.8876 52.832C59.2678 52.832 57.0574 53.7326 55.1744 55.2881V87.9533L61.0689 89.5907V90H42.403ZM93.0888 91.228C81.2998 91.228 73.113 83.1231 73.113 70.4336C73.113 56.5161 82.446 47.1832 94.4805 47.1832C103.486 47.1832 108.971 52.1771 109.544 58.7265H81.7091C81.2998 60.5276 81.1361 62.5743 81.1361 64.7847C81.1361 77.9654 87.9311 85.661 98.0827 85.661C105.615 85.661 109.135 82.0588 111.345 74.6907L111.836 74.8545C109.872 82.7956 105.696 91.228 93.0888 91.228ZM81.9548 57.9078L101.194 57.5804C100.457 51.9315 97.1822 48.3293 92.1882 48.3293C87.0306 48.3293 83.4284 51.9315 81.9548 57.9078ZM113.398 90V89.5907L118.228 87.9533V53.0776L113.398 52.0952V51.6859L126.087 47.1832H126.169V55.2062C132.637 50.376 137.876 47.1832 142.215 47.1832C147.373 47.1832 151.139 50.2123 152.285 55.4518C159.244 50.2941 164.483 47.1832 168.658 47.1832C174.88 47.1832 179.056 51.604 179.056 58.8902V87.9533L183.722 89.5907V90H166.366V89.5907L171.115 87.9533V60.2001C171.115 54.4694 167.84 51.7678 163.583 51.7678C160.062 51.7678 156.951 53.2414 152.449 56.4342C152.531 57.171 152.612 57.9897 152.612 58.8902V87.9533L157.197 89.5907V90H139.923V89.5907L144.671 87.9533V60.2001C144.671 54.4694 141.397 51.7678 137.058 51.7678C133.537 51.7678 130.426 53.3232 126.169 56.2705V87.9533L130.917 89.5907V90H113.398ZM188.893 106.783C186.11 106.783 184.472 105.064 184.472 102.444C184.472 100.561 185.291 99.0055 186.11 98.1049C188.156 99.0055 190.612 99.7423 193.232 99.7423C197.326 99.7423 199.618 97.7774 202.975 90L184.636 50.2123L181.443 48.8205V48.4112H198.472V48.8205L193.478 50.2123L207.15 80.6671L210.998 71.3341C218.284 53.487 216.646 50.2123 210.506 48.9842L209.688 48.8205V48.4112H224.26V48.8205L221.067 50.2123L204.939 87.9533C198.636 102.69 193.232 106.783 188.893 106.783ZM232.288 91.228C225.82 91.228 222.136 87.2984 222.136 83.4506C222.136 81.0764 223.282 79.6847 228.44 77.5561L244.977 70.6792V58.9721C244.977 52.3408 242.194 49.9667 237.773 49.9667C233.106 49.9667 229.913 52.6683 229.913 56.9254C229.913 58.8084 230.405 60.5276 230.896 61.8375C230.405 62.2468 229.34 62.9018 227.703 62.9018C225.493 62.9018 224.019 61.6738 224.019 59.4633C224.019 57.2529 225.574 55.2062 230.65 51.6859C235.399 48.493 238.428 47.1832 241.702 47.1832C248.006 47.1832 252.918 51.2765 252.918 58.8084V84.5967C252.918 86.6434 254.31 87.9533 256.193 87.9533C257.585 87.9533 258.485 87.6258 259.631 87.1346V87.544C256.439 89.3451 253.655 90.9824 250.79 90.9824C247.188 90.9824 244.977 88.6901 244.977 84.433V82.8775C242.849 87.2165 238.428 91.228 232.288 91.228ZM229.586 80.9945C229.586 84.2693 232.451 86.9709 236.872 86.9709C240.802 86.9709 243.913 84.2693 244.977 81.322V71.6616L234.498 76.0825C230.65 77.7198 229.586 78.9479 229.586 80.9945Z" fill="white"/>
<path d="M7.6641 98.3328H17.524V99.4998H13.1894V110.241H11.9986V99.4998H7.6641V98.3328ZM24.5711 98.0709C26.3176 98.0709 27.7307 98.6901 28.8104 99.9285C29.9059 101.167 30.4537 102.636 30.4537 104.334C30.4537 104.366 30.4457 104.462 30.4299 104.62C30.4299 104.779 30.4299 104.874 30.4299 104.906H19.6412C19.7841 106.24 20.316 107.319 21.2368 108.145C22.1577 108.955 23.3088 109.36 24.6902 109.36C25.6269 109.36 26.4526 109.169 27.1671 108.788C27.8815 108.391 28.4293 107.859 28.8104 107.192L29.8583 107.812C29.3661 108.637 28.6595 109.296 27.7386 109.788C26.8336 110.265 25.8095 110.503 24.6664 110.503C22.8246 110.503 21.3242 109.923 20.1651 108.764C18.9902 107.589 18.4027 106.097 18.4027 104.287C18.4027 102.509 18.9743 101.032 20.1175 99.8571C21.2924 98.6663 22.777 98.0709 24.5711 98.0709ZM24.5711 99.214C23.2374 99.214 22.1101 99.6348 21.1892 100.476C20.2842 101.318 19.7682 102.405 19.6412 103.739H29.2152C29.0882 102.326 28.5801 101.223 27.691 100.429C26.8019 99.6189 25.7619 99.214 24.5711 99.214ZM33.237 98.3328H43.073V110.241H41.8584V99.4998H34.4278V110.241H33.237V98.3328ZM48.0359 98.3328H56.4191V110.241H55.2283V99.4998H49.2267V105.239C49.2267 107.113 48.8853 108.439 48.2026 109.217C47.5199 109.995 46.5275 110.336 45.2256 110.241V109.122C46.1941 109.201 46.9007 108.939 47.3452 108.336C47.8057 107.732 48.0359 106.7 48.0359 105.239V98.3328ZM61.2674 102.953H64.7922C65.9036 102.953 66.8324 103.295 67.5787 103.977C68.3408 104.66 68.7218 105.533 68.7218 106.597C68.7218 107.661 68.3408 108.534 67.5787 109.217C66.8324 109.9 65.9036 110.241 64.7922 110.241H60.0766V98.3328H61.2674V102.953ZM70.5557 110.241V98.3328H71.7465V110.241H70.5557ZM61.2674 109.074H64.7922C65.5702 109.074 66.2132 108.844 66.7213 108.383C67.2452 107.907 67.5072 107.311 67.5072 106.597C67.5072 105.851 67.2452 105.255 66.7213 104.811C66.2132 104.35 65.5702 104.12 64.7922 104.12H61.2674V109.074ZM83.3105 96.2608H77.285V95.2129H83.3105V96.2608ZM76.5943 108.169L84.1917 98.3328H85.2396V110.241H84.025V100.405L76.4514 110.241H75.4035V98.3328H76.5943V108.169ZM95.2658 98.3328H105.102V110.241H103.887V99.4998H96.4566V110.241H95.2658V98.3328ZM115.09 98.0709C116.805 98.0709 118.257 98.6742 119.448 99.8809C120.655 101.072 121.258 102.54 121.258 104.287C121.258 106.033 120.655 107.51 119.448 108.717C118.257 109.907 116.805 110.503 115.09 110.503C113.963 110.503 112.946 110.241 112.041 109.717C111.152 109.177 110.462 108.431 109.969 107.478V115.004H108.779V98.3328H109.969V101.096C110.462 100.143 111.152 99.4046 112.041 98.8806C112.946 98.3408 113.963 98.0709 115.09 98.0709ZM111.422 107.883C112.407 108.867 113.605 109.36 115.018 109.36C116.416 109.36 117.606 108.867 118.591 107.883C119.575 106.899 120.067 105.7 120.067 104.287C120.067 102.874 119.575 101.675 118.591 100.691C117.606 99.7062 116.416 99.214 115.018 99.214C113.605 99.214 112.407 99.7062 111.422 100.691C110.454 101.659 109.969 102.858 109.969 104.287C109.969 105.716 110.454 106.915 111.422 107.883ZM125.32 108.169L132.917 98.3328H133.965V110.241H132.75V100.405L125.177 110.241H124.129V98.3328H125.32V108.169ZM147.668 98.0709C149.399 98.0709 150.868 98.6742 152.074 99.8809C153.297 101.072 153.908 102.54 153.908 104.287C153.908 106.017 153.297 107.494 152.074 108.717C150.852 109.907 149.383 110.503 147.668 110.503C146.017 110.503 144.612 109.971 143.453 108.907C142.294 107.843 141.643 106.494 141.5 104.858H138.832V110.241H137.642V98.3328H138.832V103.715H141.5C141.643 102.096 142.294 100.754 143.453 99.6904C144.628 98.6107 146.033 98.0709 147.668 98.0709ZM144.072 107.883C145.056 108.867 146.255 109.36 147.668 109.36C149.065 109.36 150.256 108.867 151.241 107.883C152.209 106.915 152.693 105.716 152.693 104.287C152.693 102.858 152.209 101.659 151.241 100.691C150.256 99.7062 149.065 99.214 147.668 99.214C146.255 99.214 145.056 99.7062 144.072 100.691C143.103 101.659 142.619 102.858 142.619 104.287C142.619 105.716 143.103 106.915 144.072 107.883ZM154.77 98.3328H164.63V99.4998H160.296V110.241H159.105V99.4998H154.77V98.3328Z" fill="white"/>
</svg>
