<svg width="146" height="66" viewBox="0 0 146 66" fill="none" xmlns="http://www.w3.org/2000/svg">
<path d="M12.2838 50.688L1.77977 27.7077L-0.00911748 26.9279V26.6986H9.53163V26.9279L6.73362 27.7077L14.3937 44.7709L16.5496 39.5419C20.7695 29.2672 19.4852 27.6618 16.2744 27.0196L15.8157 26.9279V26.6986H23.9804V26.9279L22.1915 27.7077L12.3755 50.688H12.2838ZM23.6371 50V49.7707L26.3433 48.8533V29.3131L23.6371 28.7627V28.5333L30.7467 26.0105H30.7926V30.0011C32.6274 28.1664 35.1502 26.0105 37.4895 26.0105C38.9573 26.0105 39.9205 26.882 39.9205 28.3957C39.9205 29.4048 39.5077 30.0929 39.049 30.5057C37.8564 29.8635 36.2052 29.1755 34.5539 29.1755C33.0861 29.1755 31.8476 29.68 30.7926 30.5516V48.8533L34.0952 49.7707V50H23.6371ZM52.0353 50.688C45.4302 50.688 40.8433 46.147 40.8433 39.0373C40.8433 31.2396 46.0724 26.0105 52.8151 26.0105C57.8607 26.0105 60.9339 28.8085 61.255 32.4781H45.6595C45.4302 33.4872 45.3385 34.6339 45.3385 35.8724C45.3385 43.2573 49.1456 47.5689 54.8333 47.5689C59.0533 47.5689 61.0256 45.5507 62.2641 41.4225L62.5393 41.5142C61.4385 45.9635 59.0991 50.688 52.0353 50.688ZM45.7971 32.0194L56.5764 31.8359C56.1635 28.6709 54.3288 26.6527 51.5308 26.6527C48.641 26.6527 46.6228 28.6709 45.7971 32.0194ZM63.4141 50V49.7707L66.1203 48.8533V29.3131L63.4141 28.7627V28.5333L70.5237 26.0105H70.5696V30.5057C74.1933 27.7994 77.1289 26.0105 79.5599 26.0105C82.4497 26.0105 84.5597 27.7077 85.2018 30.6433C89.1007 27.7535 92.0363 26.0105 94.3756 26.0105C97.8617 26.0105 100.201 28.4875 100.201 32.5698V48.8533L102.816 49.7707V50H93.0913V49.7707L95.7517 48.8533V33.3037C95.7517 30.0929 93.9169 28.5792 91.5317 28.5792C89.5594 28.5792 87.8164 29.4048 85.2936 31.1937C85.3394 31.6065 85.3853 32.0652 85.3853 32.5698V48.8533L87.954 49.7707V50H78.2756V49.7707L80.936 48.8533V33.3037C80.936 30.0929 79.1012 28.5792 76.6702 28.5792C74.6978 28.5792 72.9548 29.4507 70.5696 31.102V48.8533L73.23 49.7707V50H63.4141ZM105.713 59.4031C104.153 59.4031 103.236 58.4399 103.236 56.9721C103.236 55.9171 103.695 55.0456 104.153 54.541C105.3 55.0456 106.676 55.4584 108.144 55.4584C110.437 55.4584 111.722 54.3576 113.602 50L103.328 27.7077L101.539 26.9279V26.6986H111.079V26.9279L108.281 27.7077L115.942 44.7709L118.097 39.5419C122.18 29.5424 121.262 27.7077 117.822 27.0196L117.363 26.9279V26.6986H125.528V26.9279L123.739 27.7077L114.703 48.8533C111.171 57.1097 108.144 59.4031 105.713 59.4031ZM130.026 50.688C126.402 50.688 124.338 48.4863 124.338 46.3305C124.338 45.0003 124.98 44.2205 127.87 43.0279L137.136 39.1749V32.6157C137.136 28.9003 135.576 27.5701 133.099 27.5701C130.485 27.5701 128.696 29.0837 128.696 31.4689C128.696 32.5239 128.971 33.4872 129.246 34.2211C128.971 34.4504 128.375 34.8174 127.457 34.8174C126.219 34.8174 125.393 34.1293 125.393 32.8909C125.393 31.6524 126.265 30.5057 129.108 28.5333C131.769 26.7444 133.466 26.0105 135.301 26.0105C138.833 26.0105 141.585 28.304 141.585 32.5239V46.9726C141.585 48.1194 142.365 48.8533 143.42 48.8533C144.199 48.8533 144.704 48.6698 145.346 48.3946V48.6239C143.557 49.633 141.998 50.5504 140.392 50.5504C138.374 50.5504 137.136 49.2661 137.136 46.8809V46.0094C135.943 48.4405 133.466 50.688 130.026 50.688ZM128.512 44.9544C128.512 46.7892 130.118 48.3028 132.594 48.3028C134.796 48.3028 136.539 46.7892 137.136 45.1379V39.7253L131.264 42.2023C129.108 43.1197 128.512 43.8077 128.512 44.9544Z" fill="white"/>
<path d="M4.17347 55.3281H9.69776V55.982H7.26921V62H6.60202V55.982H4.17347V55.3281ZM13.6461 55.1814C14.6247 55.1814 15.4164 55.5283 16.0213 56.2222C16.6351 56.916 16.942 57.7389 16.942 58.6908C16.942 58.7086 16.9376 58.7619 16.9287 58.8509C16.9287 58.9398 16.9287 58.9932 16.9287 59.011H10.884C10.9641 59.7583 11.2621 60.3632 11.778 60.8258C12.294 61.2794 12.9389 61.5063 13.7129 61.5063C14.2377 61.5063 14.7003 61.3995 15.1006 61.186C15.5009 60.9636 15.8078 60.6656 16.0213 60.292L16.6084 60.6389C16.3327 61.1015 15.9368 61.4707 15.4209 61.7465C14.9138 62.0133 14.34 62.1468 13.6995 62.1468C12.6676 62.1468 11.8269 61.8221 11.1776 61.1727C10.5193 60.5144 10.1901 59.6782 10.1901 58.6641C10.1901 57.6677 10.5104 56.8404 11.1509 56.1821C11.8092 55.515 12.6409 55.1814 13.6461 55.1814ZM13.6461 55.8219C12.8989 55.8219 12.2673 56.0576 11.7513 56.5291C11.2443 57.0006 10.9552 57.6099 10.884 58.3572H16.2482C16.177 57.5654 15.8923 56.9472 15.3942 56.5024C14.896 56.0487 14.3133 55.8219 13.6461 55.8219ZM18.5015 55.3281H24.0124V62H23.3319V55.982H19.1687V62H18.5015V55.3281ZM26.793 55.3281H31.49V62H30.8228V55.982H27.4602V59.1978C27.4602 60.2475 27.2689 60.9903 26.8864 61.4262C26.5039 61.8621 25.9479 62.0534 25.2185 62V61.3728C25.7611 61.4173 26.157 61.2705 26.4061 60.9325C26.664 60.5945 26.793 60.0162 26.793 59.1978V55.3281ZM34.2064 57.9168H36.1813C36.804 57.9168 37.3244 58.1081 37.7425 58.4906C38.1695 58.8731 38.383 59.3624 38.383 59.9584C38.383 60.5544 38.1695 61.0437 37.7425 61.4262C37.3244 61.8087 36.804 62 36.1813 62H33.5392V55.3281H34.2064V57.9168ZM39.4104 62V55.3281H40.0776V62H39.4104ZM34.2064 61.3462H36.1813C36.6171 61.3462 36.9774 61.2172 37.2621 60.9592C37.5557 60.6923 37.7024 60.3587 37.7024 59.9584C37.7024 59.5403 37.5557 59.2067 37.2621 58.9576C36.9774 58.6997 36.6171 58.5707 36.1813 58.5707H34.2064V61.3462ZM46.5567 54.1672H43.1808V53.5801H46.5567V54.1672ZM42.7938 60.8391L47.0504 55.3281H47.6376V62H46.957V56.4891L42.7137 62H42.1266V55.3281H42.7938V60.8391ZM53.255 55.3281H58.766V62H58.0855V55.982H53.9222V62H53.255V55.3281ZM64.3621 55.1814C65.3229 55.1814 66.1368 55.5194 66.804 56.1955C67.4801 56.8627 67.8181 57.6855 67.8181 58.6641C67.8181 59.6426 67.4801 60.4699 66.804 61.146C66.1368 61.8132 65.3229 62.1468 64.3621 62.1468C63.7305 62.1468 63.1612 62 62.6541 61.7064C62.156 61.404 61.769 60.9859 61.4932 60.4521V64.6687H60.826V55.3281H61.4932V56.876C61.769 56.3423 62.156 55.9286 62.6541 55.6351C63.1612 55.3326 63.7305 55.1814 64.3621 55.1814ZM62.3072 60.679C62.8587 61.2305 63.5304 61.5063 64.3221 61.5063C65.1049 61.5063 65.7721 61.2305 66.3236 60.679C66.8752 60.1274 67.1509 59.4558 67.1509 58.6641C67.1509 57.8723 66.8752 57.2007 66.3236 56.6492C65.7721 56.0976 65.1049 55.8219 64.3221 55.8219C63.5304 55.8219 62.8587 56.0976 62.3072 56.6492C61.7645 57.1918 61.4932 57.8635 61.4932 58.6641C61.4932 59.4647 61.7645 60.1363 62.3072 60.679ZM70.0936 60.8391L74.3503 55.3281H74.9374V62H74.2569V56.4891L70.0136 62H69.4265V55.3281H70.0936V60.8391ZM82.6151 55.1814C83.5848 55.1814 84.4077 55.5194 85.0837 56.1955C85.7687 56.8627 86.1112 57.6855 86.1112 58.6641C86.1112 59.6337 85.7687 60.461 85.0837 61.146C84.3988 61.8132 83.5759 62.1468 82.6151 62.1468C81.69 62.1468 80.9027 61.8488 80.2533 61.2528C79.6039 60.6567 79.2392 59.9006 79.1591 58.9843H77.6646V62H76.9975V55.3281H77.6646V58.3438H79.1591C79.2392 57.4365 79.6039 56.6848 80.2533 56.0887C80.9116 55.4838 81.6989 55.1814 82.6151 55.1814ZM80.6003 60.679C81.1518 61.2305 81.8234 61.5063 82.6151 61.5063C83.398 61.5063 84.0652 61.2305 84.6167 60.679C85.1593 60.1363 85.4307 59.4647 85.4307 58.6641C85.4307 57.8635 85.1593 57.1918 84.6167 56.6492C84.0652 56.0976 83.398 55.8219 82.6151 55.8219C81.8234 55.8219 81.1518 56.0976 80.6003 56.6492C80.0576 57.1918 79.7863 57.8635 79.7863 58.6641C79.7863 59.4647 80.0576 60.1363 80.6003 60.679ZM86.5943 55.3281H92.1186V55.982H89.69V62H89.0228V55.982H86.5943V55.3281Z" fill="white"/>
</svg>
